<svg width="92" height="93" viewBox="0 0 92 93" fill="none" xmlns="http://www.w3.org/2000/svg">
<rect y="0.738281" width="92" height="92" rx="8" fill="#EAEFFA"/>
<path d="M46.1177 69.5389C67.0314 69.5389 83.9854 67.5444 83.9854 65.0839C83.9854 62.6235 67.0314 60.6289 46.1177 60.6289C25.2039 60.6289 8.25 62.6235 8.25 65.0839C8.25 67.5444 25.2039 69.5389 46.1177 69.5389Z" fill="url(#paint0_linear_4972_718893)"/>
<g filter="url(#filter0_f_4972_718893)">
<path d="M24.9163 64.3146C24.9155 66.2632 32.5473 67.6419 42.7173 67.6462C45.1044 67.6472 54.0562 68.2325 56.1495 68.0749C59.4147 66.2446 53.2682 62.4866 55.054 61.5742C55.0548 59.6256 49.0824 61.3391 38.9124 61.3348C28.7424 61.3306 24.9172 62.366 24.9163 64.3146Z" fill="url(#paint1_linear_4972_718893)"/>
</g>
<path d="M55.7858 34.1116C55.2916 33.5888 55.0215 32.8946 55.0215 32.1761V28.9219H37.2452V32.1761C37.2452 32.8945 36.9751 33.5887 36.4809 34.1116C35.4687 35.1822 33.8105 37.4931 33.8105 41.1405L33.8129 59.3387C33.8129 62.1496 36.098 64.4271 38.9183 64.4271H53.3485C56.1687 64.4271 58.4538 62.1496 58.4538 59.3387L58.4562 41.1406C58.4562 37.4931 56.7979 35.1822 55.7858 34.1116Z" fill="url(#paint2_linear_4972_718893)"/>
<path d="M33.8106 41.1255L33.8126 57.6841H58.454L58.4562 41.1255C58.4574 40.4282 58.3936 39.7323 58.2654 39.0469H34.0013C33.8732 39.7324 33.8094 40.4282 33.8106 41.1255Z" fill="white"/>
<path d="M33.8106 41.1255L33.8126 57.6841H58.454L58.4562 41.1255C58.4574 40.4282 58.3936 39.7323 58.2654 39.0469H34.0013C33.8732 39.7324 33.8094 40.4282 33.8106 41.1255Z" fill="url(#paint3_linear_4972_718893)"/>
<path d="M53.9097 54.2201H38.3574C38.0026 54.2201 37.6623 54.0796 37.4114 53.8294C37.1605 53.5793 37.0195 53.24 37.0195 52.8863V43.8768C37.0195 43.523 37.1605 43.1838 37.4114 42.9336C37.6623 42.6835 38.0026 42.543 38.3574 42.543H53.9097C54.2645 42.543 54.6048 42.6835 54.8557 42.9336C55.1066 43.1838 55.2476 43.523 55.2476 43.8768V52.8858C55.2476 53.061 55.2131 53.2345 55.1459 53.3964C55.0787 53.5583 54.9801 53.7053 54.8559 53.8293C54.7317 53.9532 54.5842 54.0515 54.4218 54.1185C54.2595 54.1856 54.0855 54.2201 53.9097 54.2201Z" fill="url(#paint4_linear_4972_718893)"/>
<path d="M50.2014 47.4249V49.2452C50.2014 49.3765 50.1492 49.5024 50.0563 49.5953C49.9634 49.6882 49.8375 49.7404 49.7061 49.7404H47.4318V52.0147C47.4318 52.1461 47.3796 52.272 47.2867 52.3649C47.1939 52.4578 47.0679 52.5099 46.9366 52.5099H45.1163C45.0513 52.5099 44.9869 52.4971 44.9268 52.4722C44.8667 52.4474 44.8121 52.4109 44.7661 52.3649C44.7202 52.3189 44.6837 52.2643 44.6588 52.2042C44.6339 52.1442 44.6211 52.0798 44.6211 52.0147V49.7404H42.3468C42.2154 49.7404 42.0895 49.6882 41.9966 49.5953C41.9037 49.5024 41.8516 49.3765 41.8516 49.2452V47.4249C41.8516 47.3599 41.8644 47.2955 41.8893 47.2354C41.9141 47.1753 41.9506 47.1207 41.9966 47.0747C42.0426 47.0288 42.0972 46.9923 42.1573 46.9674C42.2174 46.9425 42.2817 46.9297 42.3468 46.9297H44.6211V44.6554C44.6211 44.5903 44.6339 44.5259 44.6588 44.4659C44.6837 44.4058 44.7202 44.3512 44.7661 44.3052C44.8121 44.2592 44.8667 44.2227 44.9268 44.1979C44.9869 44.173 45.0513 44.1602 45.1163 44.1602H46.9366C47.0679 44.1602 47.1939 44.2123 47.2867 44.3052C47.3796 44.3981 47.4318 44.524 47.4318 44.6554V46.9297H49.7061C49.7712 46.9297 49.8356 46.9425 49.8956 46.9674C49.9557 46.9923 50.0103 47.0288 50.0563 47.0747C50.1023 47.1207 50.1388 47.1753 50.1637 47.2354C50.1885 47.2955 50.2014 47.3599 50.2014 47.4249Z" fill="white"/>
<path d="M50.2014 47.4249V49.2452C50.2014 49.3765 50.1492 49.5024 50.0563 49.5953C49.9634 49.6882 49.8375 49.7404 49.7061 49.7404H47.4318V52.0147C47.4318 52.1461 47.3796 52.272 47.2867 52.3649C47.1939 52.4578 47.0679 52.5099 46.9366 52.5099H45.1163C45.0513 52.5099 44.9869 52.4971 44.9268 52.4722C44.8667 52.4474 44.8121 52.4109 44.7661 52.3649C44.7202 52.3189 44.6837 52.2643 44.6588 52.2042C44.6339 52.1442 44.6211 52.0798 44.6211 52.0147V49.7404H42.3468C42.2154 49.7404 42.0895 49.6882 41.9966 49.5953C41.9037 49.5024 41.8516 49.3765 41.8516 49.2452V47.4249C41.8516 47.3599 41.8644 47.2955 41.8893 47.2354C41.9141 47.1753 41.9506 47.1207 41.9966 47.0747C42.0426 47.0288 42.0972 46.9923 42.1573 46.9674C42.2174 46.9425 42.2817 46.9297 42.3468 46.9297H44.6211V44.6554C44.6211 44.5903 44.6339 44.5259 44.6588 44.4659C44.6837 44.4058 44.7202 44.3512 44.7661 44.3052C44.8121 44.2592 44.8667 44.2227 44.9268 44.1979C44.9869 44.173 45.0513 44.1602 45.1163 44.1602H46.9366C47.0679 44.1602 47.1939 44.2123 47.2867 44.3052C47.3796 44.3981 47.4318 44.524 47.4318 44.6554V46.9297H49.7061C49.7712 46.9297 49.8356 46.9425 49.8956 46.9674C49.9557 46.9923 50.0103 47.0288 50.0563 47.0747C50.1023 47.1207 50.1388 47.1753 50.1637 47.2354C50.1885 47.2955 50.2014 47.3599 50.2014 47.4249Z" fill="url(#paint5_linear_4972_718893)"/>
<path opacity="0.1" d="M55.0225 32.1761V28.9219H37.2461V31.3252L58.4558 52.4708L58.4572 41.1405C58.4572 37.4931 56.799 35.1823 55.7868 34.1117C55.2926 33.5887 55.0225 32.8945 55.0225 32.1761Z" fill="url(#paint6_linear_4972_718893)"/>
<path d="M54.5271 31.4023H37.7379C37.5236 31.4023 37.3113 31.3602 37.1132 31.2785C36.9151 31.1967 36.7352 31.0768 36.5836 30.9256C36.432 30.7745 36.3117 30.5951 36.2297 30.3976C36.1477 30.2001 36.1055 29.9885 36.1055 29.7748V26.6157C36.1055 26.1841 36.2775 25.7702 36.5836 25.465C36.8897 25.1598 37.3049 24.9883 37.7378 24.9883H54.527C54.7414 24.9883 54.9537 25.0304 55.1518 25.1121C55.3498 25.1939 55.5298 25.3138 55.6814 25.4649C55.833 25.616 55.9532 25.7955 56.0352 25.9929C56.1173 26.1904 56.1595 26.402 56.1595 26.6157V29.7749C56.1595 30.2065 55.9875 30.6204 55.6814 30.9256C55.3753 31.2309 54.9601 31.4023 54.5271 31.4023Z" fill="url(#paint7_linear_4972_718893)"/>
<path d="M52.0384 31.4023H40.2285C40.0456 31.4023 39.8645 31.3664 39.6955 31.2966C39.5266 31.2268 39.373 31.1245 39.2437 30.9956C39.1144 30.8666 39.0118 30.7135 38.9419 30.545C38.8719 30.3766 38.8359 30.196 38.8359 30.0136V26.3766C38.836 26.0084 38.9827 25.6553 39.2439 25.3949C39.505 25.1345 39.8592 24.9883 40.2285 24.9883H52.0384C52.4078 24.9883 52.762 25.1345 53.0231 25.3949C53.2843 25.6553 53.431 26.0084 53.431 26.3766V30.0136C53.4311 30.196 53.3951 30.3765 53.3251 30.545C53.2551 30.7135 53.1525 30.8666 53.0232 30.9955C52.8939 31.1245 52.7404 31.2268 52.5714 31.2966C52.4024 31.3664 52.2213 31.4023 52.0384 31.4023Z" fill="url(#paint8_linear_4972_718893)"/>
<path d="M48.1103 31.4023H44.1533C43.9225 31.4023 43.7012 31.3109 43.538 31.1482C43.3749 30.9856 43.2832 30.7649 43.2832 30.5349V25.8557C43.2832 25.6257 43.3749 25.4051 43.538 25.2424C43.7012 25.0797 43.9224 24.9883 44.1532 24.9883H48.1102C48.341 24.9883 48.5623 25.0797 48.7255 25.2424C48.8886 25.405 48.9803 25.6257 48.9803 25.8557V30.5349C48.9803 30.6488 48.9579 30.7616 48.9141 30.8668C48.8704 30.9721 48.8064 31.0677 48.7256 31.1483C48.6448 31.2288 48.5489 31.2927 48.4433 31.3363C48.3377 31.3799 48.2246 31.4023 48.1103 31.4023Z" fill="url(#paint9_linear_4972_718893)"/>
<path d="M36.1055 27.3438V29.7778C36.1055 30.2094 36.2775 30.6234 36.5836 30.9286C36.7352 31.0797 36.9151 31.1996 37.1132 31.2814C37.3112 31.3632 37.5235 31.4053 37.7378 31.4053H54.527C54.7414 31.4053 54.9537 31.3632 55.1517 31.2814C55.3498 31.1996 55.5297 31.0797 55.6813 30.9286C55.8329 30.7775 55.9531 30.5981 56.0351 30.4006C56.1171 30.2032 56.1593 29.9915 56.1593 29.7778V27.3438H36.1055Z" fill="url(#paint10_linear_4972_718893)"/>
<path d="M56.0323 67.7861C60.8821 68.4681 65.3666 65.0894 66.0486 60.2396C66.7307 55.3897 63.352 50.9053 58.5021 50.2232C53.6523 49.5412 49.1678 52.9199 48.4858 57.7697C47.8037 62.6196 51.1824 67.104 56.0323 67.7861Z" fill="url(#paint11_linear_4972_718893)"/>
<path opacity="0.5" d="M57.1498 62.0677C57.23 62.187 57.2849 62.3208 57.3113 62.4612C57.3377 62.6015 57.3351 62.7454 57.3035 62.8842C57.272 63.0231 57.2122 63.154 57.1277 63.2691C57.0433 63.3842 56.9359 63.4812 56.8121 63.5542C56.5667 63.6961 56.274 63.7378 55.9962 63.6706C55.7184 63.6034 55.4773 63.4326 55.3241 63.1943C55.1709 62.956 55.1177 62.6691 55.1758 62.3944C55.2339 62.1198 55.3986 61.8791 55.6351 61.7235C55.7559 61.6454 55.8916 61.5923 56.0341 61.5674C56.1767 61.5424 56.3231 61.5462 56.4646 61.5783C56.6061 61.6105 56.7397 61.6704 56.8575 61.7545C56.9753 61.8386 57.0747 61.9451 57.1498 62.0677ZM57.0777 53.9977C57.1076 53.7956 57.2243 53.7236 57.4418 53.7731L59.0871 54.1469C59.3017 54.1957 59.3758 54.3111 59.3193 54.507L57.6158 60.7324C57.559 60.9293 57.4299 60.9985 57.2515 60.958L56.1069 60.6979C55.9038 60.6517 55.8297 60.5364 55.875 60.3369L57.0777 53.9977Z" fill="#1E5BCF"/>
<path d="M57.6088 61.7786C57.689 61.8979 57.7439 62.0318 57.7703 62.1721C57.7967 62.3124 57.7941 62.4563 57.7625 62.5952C57.731 62.734 57.6712 62.8649 57.5867 62.98C57.5023 63.0952 57.3949 63.1921 57.271 63.2651C57.0257 63.407 56.733 63.4488 56.4552 63.3816C56.1774 63.3144 55.9363 63.1435 55.7831 62.9052C55.6299 62.6669 55.5767 62.38 55.6348 62.1054C55.6928 61.8308 55.8576 61.5901 56.0941 61.4344C56.2149 61.3564 56.3506 61.3033 56.4931 61.2783C56.6356 61.2534 56.7821 61.2571 56.9236 61.2893C57.0651 61.3214 57.1987 61.3813 57.3165 61.4654C57.4342 61.5495 57.5337 61.6561 57.6088 61.7786ZM57.5367 53.7086C57.5666 53.5066 57.6833 53.4346 57.9007 53.484L59.5461 53.8579C59.7607 53.9066 59.8348 54.022 59.7783 54.218L58.0747 60.4434C58.018 60.6403 57.8889 60.7095 57.7105 60.6689L56.5659 60.4088C56.3627 60.3627 56.2886 60.2473 56.334 60.0478L57.5367 53.7086Z" fill="url(#paint12_linear_4972_718893)"/>
<defs>
<filter id="filter0_f_4972_718893" x="22.8816" y="58.6077" width="36.2764" height="11.5288" filterUnits="userSpaceOnUse" color-interpolation-filters="sRGB">
<feFlood flood-opacity="0" result="BackgroundImageFix"/>
<feBlend mode="normal" in="SourceGraphic" in2="BackgroundImageFix" result="shape"/>
<feGaussianBlur stdDeviation="1.01746" result="effect1_foregroundBlur_4972_718893"/>
</filter>
<linearGradient id="paint0_linear_4972_718893" x1="46.1177" y1="59.0089" x2="46.1177" y2="69.5389" gradientUnits="userSpaceOnUse">
<stop stop-color="#B0CAFE"/>
<stop offset="1" stop-color="#F2F7FF"/>
</linearGradient>
<linearGradient id="paint1_linear_4972_718893" x1="52.2067" y1="62.3235" x2="49.158" y2="73.309" gradientUnits="userSpaceOnUse">
<stop offset="0.025906" stop-color="#1350DD"/>
<stop offset="1" stop-color="#F4F7FF" stop-opacity="0"/>
</linearGradient>
<linearGradient id="paint2_linear_4972_718893" x1="58.4134" y1="38.7445" x2="40.8753" y2="58.4945" gradientUnits="userSpaceOnUse">
<stop offset="0.0104167" stop-color="#C1D6FF"/>
<stop offset="1" stop-color="#77A3FE"/>
</linearGradient>
<linearGradient id="paint3_linear_4972_718893" x1="52.4528" y1="41.6743" x2="41.9369" y2="56.1851" gradientUnits="userSpaceOnUse">
<stop stop-color="#7EA2FD"/>
<stop offset="1" stop-color="#245EF1"/>
</linearGradient>
<linearGradient id="paint4_linear_4972_718893" x1="56.8559" y1="35.6741" x2="46.5693" y2="57.3734" gradientUnits="userSpaceOnUse">
<stop stop-color="#ABCDF6"/>
<stop offset="1" stop-color="#F2F6FA"/>
</linearGradient>
<linearGradient id="paint5_linear_4972_718893" x1="48.1674" y1="45.3373" x2="43.2142" y2="50.5058" gradientUnits="userSpaceOnUse">
<stop stop-color="#7EA2FD"/>
<stop offset="1" stop-color="#245EF1"/>
</linearGradient>
<linearGradient id="paint6_linear_4972_718893" x1="58.4572" y1="52.2044" x2="29.5291" y2="44.5204" gradientUnits="userSpaceOnUse">
<stop stop-color="#B0CAFF"/>
<stop offset="1" stop-color="#E7EFFF"/>
</linearGradient>
<linearGradient id="paint7_linear_4972_718893" x1="47.5657" y1="31.1087" x2="47.5657" y2="17.4135" gradientUnits="userSpaceOnUse">
<stop stop-color="#89B0FF"/>
<stop offset="1" stop-color="#C5D8FF"/>
</linearGradient>
<linearGradient id="paint8_linear_4972_718893" x1="47.1766" y1="31.1087" x2="47.0822" y2="22.8067" gradientUnits="userSpaceOnUse">
<stop stop-color="#89B0FF"/>
<stop offset="1" stop-color="#C5D8FF"/>
</linearGradient>
<linearGradient id="paint9_linear_4972_718893" x1="46.5389" y1="31.1087" x2="46.5389" y2="24.9883" gradientUnits="userSpaceOnUse">
<stop stop-color="#89B0FF"/>
<stop offset="1" stop-color="#C5D8FF"/>
</linearGradient>
<linearGradient id="paint10_linear_4972_718893" x1="46.475" y1="30.7472" x2="46.475" y2="27.2931" gradientUnits="userSpaceOnUse">
<stop stop-color="#89B0FF"/>
<stop offset="1" stop-color="#C5D8FF" stop-opacity="0"/>
</linearGradient>
<linearGradient id="paint11_linear_4972_718893" x1="59.251" y1="53.9883" x2="49.5483" y2="63.8215" gradientUnits="userSpaceOnUse">
<stop stop-color="#87A9FF"/>
<stop offset="1" stop-color="#245EF1"/>
</linearGradient>
<linearGradient id="paint12_linear_4972_718893" x1="58.5954" y1="51.5158" x2="62.5157" y2="60.8969" gradientUnits="userSpaceOnUse">
<stop stop-color="#ABCDF6"/>
<stop offset="1" stop-color="#F2F6FA"/>
</linearGradient>
</defs>
</svg>
